<?xml version="1.0" standalone="no"?>
<!DOCTYPE svg PUBLIC "-//W3C//DTD SVG 20010904//EN"
 "http://www.w3.org/TR/2001/REC-SVG-20010904/DTD/svg10.dtd">
<svg version="1.0" xmlns="http://www.w3.org/2000/svg"
 width="1024.000000pt" height="1024.000000pt" viewBox="0 0 1024.000000 1024.000000"
 preserveAspectRatio="xMidYMid meet">
<metadata>
Created by potrace 1.11, written by Peter Selinger 2001-2013
</metadata>
<g transform="translate(0.000000,1024.000000) scale(0.100000,-0.100000)"
fill="#000000" stroke="none">
<path d="M1610 10214 c-41 -14 -89 -36 -107 -50 -17 -13 -34 -24 -37 -24 -8 0
-57 -51 -92 -98 -32 -40 -75 -126 -72 -140 1 -4 -3 -16 -8 -27 -5 -12 -9
-1939 -9 -4760 l0 -4740 29 -70 c15 -38 35 -75 42 -81 8 -6 14 -16 14 -23 0
-6 5 -11 10 -11 6 0 10 -5 10 -11 0 -15 56 -66 115 -104 46 -29 100 -53 150
-64 45 -10 6871 -11 6915 -1 25 6 52 12 61 14 9 3 34 13 55 24 22 11 42 19 45
18 10 -2 110 98 144 144 19 25 45 79 59 120 l25 75 1 3319 c0 3315 0 3318 -20
3313 -11 -3 -22 -1 -25 4 -3 4 -16 4 -30 -1 -15 -6 -27 -6 -30 0 -3 5 -15 6
-28 1 -12 -5 -34 -5 -49 0 -16 4 -28 4 -28 -1 0 -6 -10 -6 -25 0 -15 6 -26 6
-30 -1 -4 -5 -11 -6 -17 -3 -10 6 -99 9 -123 4 -5 -1 -14 -1 -20 0 -11 2 -180
2 -180 0 0 -1 -17 -2 -38 -3 -20 -1 -37 0 -37 3 0 3 -38 5 -85 5 -47 0 -85 -3
-85 -7 0 -4 -6 -5 -12 -3 -23 9 -109 11 -114 3 -3 -5 -13 -4 -23 1 -10 6 -23
6 -31 1 -8 -5 -21 -5 -30 0 -9 5 -22 5 -30 0 -7 -4 -18 -6 -24 -4 -21 8 -107
10 -112 2 -3 -4 -14 -4 -26 1 -12 4 -37 5 -55 1 -18 -5 -33 -4 -33 0 0 5 -13
5 -30 0 -16 -5 -30 -6 -30 -2 0 4 -38 7 -85 7 -47 0 -85 -2 -85 -5 0 -3 -16
-5 -35 -5 -19 0 -35 2 -35 5 0 3 -38 5 -85 5 -47 0 -85 -3 -85 -7 0 -4 -6 -5
-12 -3 -23 9 -108 11 -108 3 0 -4 -11 -3 -25 2 -14 5 -27 5 -30 0 -3 -5 -18
-5 -35 0 -18 5 -30 5 -30 0 0 -6 -10 -6 -25 0 -15 6 -27 6 -30 0 -3 -6 -15 -6
-30 0 -15 6 -27 6 -30 0 -4 -6 -13 -7 -24 -1 -9 5 -23 6 -30 1 -8 -4 -27 -4
-42 0 -17 5 -29 5 -29 0 0 -6 -10 -6 -25 0 -15 6 -26 6 -30 -1 -4 -5 -11 -6
-17 -3 -14 9 -113 8 -127 0 -5 -4 -12 -3 -15 2 -3 4 -30 5 -60 2 -31 -3 -56
-3 -56 1 0 4 -13 4 -30 -1 -16 -5 -30 -6 -30 -2 0 4 -33 8 -73 8 -221 5 -434
209 -440 421 -1 29 -5 53 -9 53 -4 0 -3 14 2 30 5 17 5 30 0 30 -5 0 -5 13 0
30 5 17 5 30 0 30 -5 0 -5 13 0 29 4 15 4 34 0 42 -5 7 -5 20 0 29 5 9 5 22 0
30 -5 8 -5 21 0 30 5 9 5 22 0 30 -5 8 -5 21 0 30 5 9 5 22 0 30 -5 8 -5 21 0
30 5 9 5 22 0 30 -5 8 -5 21 0 30 5 9 5 22 0 30 -5 8 -5 21 0 30 5 9 5 22 0
30 -5 8 -5 21 0 30 5 9 5 22 0 29 -4 8 -4 27 0 42 5 16 5 29 0 29 -5 0 -5 13
0 30 5 17 6 30 2 30 -8 0 -7 84 1 97 3 5 2 15 -3 23 -4 7 -4 24 0 36 6 14 5
26 0 29 -5 3 -5 18 0 35 5 16 5 32 0 35 -5 3 -5 19 0 35 5 17 5 32 0 35 -5 3
-5 16 0 30 6 15 6 27 0 30 -6 4 -7 13 -1 24 5 9 6 23 1 31 -4 7 -4 24 0 36 6
14 5 26 0 29 -5 3 -5 18 0 35 5 16 5 32 0 35 -5 3 -5 19 0 35 5 17 5 32 0 35
-5 3 -6 16 -2 28 8 25 8 69 -1 83 -3 6 -2 16 3 24 5 8 5 21 0 30 -5 9 -5 22 0
29 4 8 4 27 0 42 -5 16 -5 29 0 29 5 0 5 13 0 30 -5 17 -5 30 0 30 5 0 5 13 0
30 -5 17 -5 32 0 35 5 3 5 16 0 30 -6 15 -6 27 0 30 6 3 6 15 0 30 -6 15 -6
27 0 30 6 3 6 15 0 30 -6 15 -6 27 0 30 5 3 6 15 1 28 -5 12 -5 34 0 49 4 16
4 28 -1 28 -5 0 -5 13 0 30 5 17 5 30 0 30 -5 0 -5 13 0 30 5 17 5 30 0 30 -5
0 -5 13 0 30 5 17 5 30 0 30 -5 0 -5 13 0 30 5 17 5 30 0 30 -5 0 -5 13 0 30
5 17 5 30 0 30 -5 0 -5 13 0 30 5 17 5 30 0 30 -5 0 -5 13 0 30 5 17 5 30 0
30 -5 0 -5 13 0 30 5 17 5 30 0 30 -5 0 -5 13 0 30 5 17 5 30 0 30 -5 0 -5 13
0 30 5 17 5 30 1 30 -4 0 -6 14 -3 30 l4 30 -2038 0 -2039 -1 -75 -25z m3927
-4400 c3 3 15 1 25 -5 17 -9 225 -72 278 -84 49 -12 220 -64 236 -73 38 -20
58 -52 57 -90 -1 -32 -9 -77 -13 -77 -1 0 -3 -7 -5 -15 -1 -8 -9 -35 -16 -60
-7 -25 -13 -47 -14 -50 -1 -3 -7 -25 -14 -50 -7 -25 -14 -49 -16 -55 -1 -5 -5
-17 -8 -25 -7 -18 -76 -256 -82 -285 -3 -11 -14 -49 -26 -85 -11 -36 -23 -72
-25 -80 -2 -8 -13 -49 -25 -90 -11 -41 -22 -82 -24 -90 -2 -8 -4 -16 -4 -17
-1 -2 -1 -5 -1 -8 -1 -2 -7 -20 -16 -40 -8 -19 -11 -35 -8 -35 4 0 1 -6 -5
-13 -6 -8 -8 -16 -5 -19 2 -3 -2 -21 -10 -39 -14 -32 -53 -164 -81 -274 -7
-27 -18 -62 -24 -77 -6 -16 -8 -28 -5 -28 4 0 2 -6 -4 -12 -8 -11 -24 -62 -28
-93 0 -5 -4 -17 -7 -25 -6 -13 -83 -277 -107 -365 -5 -16 -14 -47 -20 -69 -6
-21 -13 -46 -16 -55 -2 -9 -22 -79 -45 -156 -62 -211 -70 -239 -74 -255 -2 -8
-4 -16 -4 -17 -1 -2 -2 -6 -3 -10 -1 -5 -8 -28 -15 -53 -25 -81 -65 -215 -68
-230 -2 -8 -4 -16 -5 -17 -3 -3 -4 -7 -14 -48 -4 -16 -24 -83 -43 -147 -19
-64 -36 -123 -37 -130 -1 -7 -5 -18 -8 -24 -4 -6 -9 -21 -12 -35 -11 -55 -15
-69 -20 -77 -3 -5 -7 -19 -10 -33 -3 -13 -35 -125 -71 -249 -98 -334 -135
-463 -140 -485 -3 -11 -17 -58 -31 -105 -26 -84 -64 -138 -99 -141 -8 -1 -21
-2 -27 -3 -7 -1 -29 3 -48 10 -19 7 -80 25 -135 39 -55 15 -109 31 -120 36
-11 5 -29 11 -40 12 -11 2 -27 6 -35 9 -17 6 -62 19 -130 38 -106 29 -137 53
-143 109 -2 18 13 89 35 164 22 73 44 148 49 167 5 19 11 40 13 45 1 6 8 30
15 55 7 25 24 81 38 125 14 44 27 94 30 110 3 17 9 37 14 46 4 9 10 27 13 40
6 27 27 100 49 172 8 26 13 47 10 47 -3 0 0 7 7 15 7 8 9 15 6 15 -4 0 -2 8 3
18 6 11 12 30 15 43 3 13 17 65 31 114 15 50 29 101 32 114 2 14 6 28 9 32 8
13 92 302 98 339 2 8 8 28 15 43 6 16 11 32 11 36 0 5 9 37 20 72 12 35 22 71
24 79 2 8 6 22 9 30 3 8 20 67 38 130 17 63 40 144 51 180 11 36 37 127 58
202 21 76 41 141 44 146 3 5 7 19 10 33 3 13 12 47 20 74 8 28 35 122 60 210
26 88 50 171 55 185 5 14 17 52 26 85 9 33 19 67 22 75 3 8 7 22 8 30 4 22 11
45 41 145 14 50 27 95 29 100 1 6 5 17 8 25 3 8 13 40 21 70 8 30 26 96 41
145 14 50 37 131 51 180 13 50 27 97 31 105 7 17 9 25 17 55 19 76 60 202 69
214 28 34 68 49 104 39 19 -5 37 -7 40 -4z m-1763 -1038 c76 -78 281 -295 327
-346 44 -49 65 -86 63 -110 -1 -8 -2 -22 -3 -30 -1 -15 -53 -74 -97 -111 -34
-28 -186 -160 -199 -172 -7 -7 -43 -39 -80 -72 -38 -33 -79 -69 -91 -80 -13
-11 -49 -42 -80 -70 -32 -27 -70 -61 -85 -75 -15 -14 -51 -45 -79 -70 -29 -25
-71 -61 -94 -82 l-41 -36 36 -34 c20 -18 64 -58 99 -88 35 -30 68 -60 74 -65
11 -10 152 -134 210 -184 16 -14 37 -33 46 -41 17 -16 145 -128 194 -170 16
-14 45 -40 64 -58 20 -18 52 -47 71 -65 20 -18 41 -43 47 -57 12 -28 8 -83 -7
-88 -5 -2 -9 -8 -9 -14 0 -6 -17 -27 -37 -47 -21 -20 -83 -86 -138 -145 -245
-265 -255 -273 -320 -266 -27 3 -40 13 -167 132 -62 58 -129 120 -148 138 -39
36 -262 245 -320 300 -20 19 -90 85 -155 145 -64 61 -144 136 -177 167 -33 31
-110 103 -171 160 -236 220 -237 221 -244 261 -4 25 -1 44 11 62 9 14 14 25
11 25 -4 0 15 18 41 41 26 23 60 53 75 68 14 14 77 73 139 131 62 58 131 123
155 145 23 22 95 90 160 150 65 61 137 128 160 150 23 22 98 92 165 155 68 63
146 136 173 163 28 26 54 47 59 47 4 0 8 7 8 15 0 8 4 15 8 15 5 0 40 30 78
66 80 76 111 100 139 106 37 8 80 -14 129 -66z m2883 57 c12 -4 73 -56 135
-114 62 -59 131 -124 153 -144 48 -45 285 -268 330 -310 18 -16 87 -82 155
-145 68 -63 140 -131 160 -150 20 -19 88 -82 150 -140 62 -58 150 -141 196
-185 l83 -80 -3 -49 c-3 -46 -6 -52 -77 -118 -41 -38 -128 -120 -194 -182 -66
-62 -133 -125 -150 -140 -31 -28 -203 -190 -299 -281 -29 -27 -106 -99 -171
-160 -65 -60 -142 -132 -171 -160 -249 -237 -277 -261 -312 -271 -64 -19 -66
-18 -312 246 -63 67 -132 141 -153 163 -40 42 -63 83 -61 107 1 8 2 23 3 32 1
22 23 43 197 196 27 23 67 58 89 78 22 20 67 59 100 86 33 28 67 58 75 67 8 9
47 43 85 76 39 32 77 66 86 75 8 8 44 40 79 70 36 30 80 69 100 87 l35 32 -46
43 c-40 37 -90 82 -183 161 -57 49 -164 145 -188 169 -16 14 -28 24 -28 22 0
-3 -10 5 -23 18 -13 13 -52 48 -87 78 -35 30 -80 71 -101 90 -22 19 -60 53
-86 75 -81 70 -89 79 -101 113 -14 42 1 84 49 134 19 19 84 88 144 153 272
291 266 287 342 258z"/>
<path d="M6402 10234 c4 -4 3 -14 -2 -23 -5 -10 -5 -23 0 -31 4 -7 4 -24 0
-36 -6 -14 -5 -26 0 -29 5 -3 5 -18 0 -35 -5 -16 -5 -32 0 -35 5 -3 5 -19 0
-35 -5 -17 -5 -32 0 -35 5 -3 5 -16 0 -30 -6 -15 -6 -27 0 -30 6 -4 7 -13 1
-24 -5 -9 -6 -23 -1 -31 4 -7 4 -24 0 -36 -6 -14 -5 -26 0 -29 5 -3 5 -18 0
-35 -5 -16 -5 -32 0 -35 5 -3 5 -19 0 -35 -5 -17 -5 -32 0 -35 5 -3 5 -16 0
-30 -6 -15 -6 -27 0 -30 6 -4 7 -13 1 -24 -5 -9 -6 -23 -1 -31 4 -7 4 -24 0
-36 -6 -14 -5 -26 0 -29 5 -3 5 -18 0 -35 -5 -16 -5 -32 0 -35 5 -3 5 -19 0
-35 -5 -17 -5 -32 0 -35 5 -3 5 -16 0 -30 -6 -15 -6 -27 0 -30 6 -4 7 -13 1
-24 -5 -9 -6 -23 -1 -31 4 -7 4 -24 0 -36 -6 -14 -5 -26 0 -29 5 -3 5 -18 0
-35 -5 -16 -5 -32 0 -35 5 -3 5 -19 0 -35 -5 -17 -5 -32 0 -35 5 -3 6 -16 2
-28 -8 -25 -8 -69 1 -83 3 -6 2 -16 -3 -24 -5 -8 -5 -21 0 -30 5 -9 5 -22 0
-30 -5 -8 -5 -21 0 -30 5 -9 5 -22 0 -30 -5 -8 -5 -21 0 -30 5 -9 5 -22 0 -30
-5 -8 -5 -21 0 -30 5 -9 5 -22 0 -30 -5 -8 -5 -21 0 -30 5 -9 5 -22 0 -30 -5
-8 -5 -21 0 -30 5 -9 5 -22 0 -30 -5 -8 -5 -21 0 -30 5 -9 5 -22 0 -30 -5 -8
-5 -21 0 -30 5 -9 5 -22 0 -30 -5 -8 -5 -21 0 -30 5 -9 5 -22 0 -30 -5 -8 -5
-21 0 -30 5 -9 5 -22 0 -30 -5 -8 -5 -21 0 -30 5 -9 5 -22 0 -30 -5 -8 -5 -21
0 -30 5 -9 5 -22 0 -30 -5 -8 -5 -21 0 -30 5 -9 5 -22 0 -30 -5 -8 -5 -21 0
-30 5 -9 5 -22 0 -30 -5 -8 -5 -21 0 -30 5 -9 5 -22 0 -30 -5 -8 -5 -21 0 -30
5 -9 5 -22 0 -30 -5 -8 -5 -21 0 -30 5 -9 5 -22 0 -30 -5 -8 -5 -21 0 -30 5
-9 5 -22 0 -30 -5 -8 -5 -21 1 -31 6 -11 5 -20 -1 -24 -5 -3 -6 -15 -1 -28 4
-12 6 -27 4 -34 -3 -9 4 -10 25 -4 16 5 35 5 43 1 7 -5 20 -5 28 -1 8 5 27 5
43 1 15 -5 30 -5 33 0 3 4 20 5 37 1 18 -4 48 -4 66 0 18 3 35 3 38 -2 2 -4
15 -4 27 0 12 5 31 5 43 1 11 -5 27 -5 34 0 7 4 26 4 41 0 16 -5 31 -5 34 0 3
4 20 5 37 1 18 -4 48 -4 66 0 18 3 35 3 38 -2 2 -4 15 -4 27 0 12 5 31 5 43 1
11 -5 27 -5 34 0 7 4 26 4 41 0 16 -5 31 -5 34 0 3 4 20 5 37 1 18 -4 48 -4
66 0 18 3 35 3 38 -2 2 -4 15 -4 27 0 12 5 31 5 43 1 11 -5 27 -5 34 0 7 4 26
4 41 0 16 -5 31 -5 34 0 3 4 20 4 39 0 19 -4 37 -6 40 -3 4 4 133 7 151 3 6
-1 15 -1 20 0 6 1 28 1 50 1 22 0 59 -1 83 0 23 0 49 0 57 -1 33 -1 42 0 82 2
24 1 45 -1 49 -5 3 -3 16 -2 28 2 11 4 35 5 51 1 17 -3 45 -3 63 1 17 4 34 3
37 -2 3 -4 16 -5 28 0 12 4 36 5 52 1 17 -3 44 -3 61 1 18 3 38 3 45 -1 7 -5
19 -6 27 -2 20 7 80 7 88 -1 3 -3 16 -2 28 2 11 4 35 5 51 1 17 -3 45 -3 63 1
17 4 34 3 37 -1 2 -4 22 -4 44 0 22 4 45 4 52 -1 7 -4 18 -5 23 -1 6 3 25 5
44 4 l33 -3 -2 101 c-3 97 -30 221 -50 228 -5 2 -9 11 -9 19 0 9 -17 37 -37
62 -51 62 -2008 2018 -2058 2057 -82 63 -175 91 -315 93 -52 1 -91 -1 -88 -5z"/>
</g>
</svg>
